<svg xmlns="http://www.w3.org/2000/svg" xmlns:xlink="http://www.w3.org/1999/xlink" width="300" zoomAndPan="magnify" viewBox="0 0 224.87999 89.999999" height="120" preserveAspectRatio="xMidYMid meet" version="1.0"><path fill="#ffffff" d="M 119.667969 49.441406 C 117.9375 53.964844 114.710938 62.390625 112.691406 66.9375 L 112.46875 67.445312 L 117.613281 69.304688 L 117.808594 68.867188 C 120.378906 63.113281 122.671875 57.359375 124.8125 51.28125 L 124.984375 50.796875 L 119.847656 48.96875 Z M 119.667969 49.441406 " fill-opacity="1" fill-rule="evenodd"/><path fill="#ffffff" d="M 116.132812 29.792969 C 117.730469 31.027344 119.539062 32.421875 120.675781 33.398438 L 121.082031 33.75 L 124.472656 29.464844 L 124.105469 29.140625 C 122.542969 27.769531 120.0625 25.8125 116.730469 23.324219 L 116.320312 23.015625 L 113.011719 27.34375 L 113.402344 27.660156 C 114.117188 28.238281 115.09375 28.992188 116.132812 29.792969 " fill-opacity="1" fill-rule="evenodd"/><path fill="#ffffff" d="M 121.085938 45.894531 L 124.476562 41.605469 L 124.097656 41.28125 C 121.414062 38.984375 118.398438 36.609375 115.613281 34.589844 L 115.203125 34.292969 L 111.894531 38.640625 L 112.320312 38.953125 C 115.039062 40.933594 118.003906 43.273438 120.675781 45.546875 Z M 121.085938 45.894531 " fill-opacity="1" fill-rule="evenodd"/><path fill="#ffffff" d="M 149.195312 30.019531 L 147.835938 34.609375 L 139.171875 34.609375 L 137.8125 30.019531 Z M 147.910156 55.566406 L 147.910156 58.210938 C 147.910156 58.609375 147.589844 58.929688 147.195312 58.929688 L 139.097656 58.929688 L 139.097656 55.566406 Z M 146.480469 19.628906 L 140.527344 19.628906 L 140.527344 25.046875 L 124.515625 25.046875 L 124.515625 30.019531 L 131.910156 30.027344 L 133.523438 34.617188 L 125.875 34.609375 L 125.875 69.957031 L 131.347656 69.957031 L 131.347656 39.585938 L 140.769531 39.585938 L 140.769531 42.605469 L 132.789062 42.605469 L 132.789062 47.578125 L 140.769531 47.578125 L 140.769531 50.59375 L 134.121094 50.59375 L 134.121094 63.902344 L 149.289062 63.902344 C 151.273438 63.902344 152.886719 62.289062 152.886719 60.304688 L 152.886719 50.59375 L 146.238281 50.59375 L 146.238281 47.578125 L 153.707031 47.578125 L 153.707031 42.605469 L 146.238281 42.605469 L 146.238281 39.585938 L 155.660156 39.585938 L 155.660156 63.035156 C 155.660156 64.109375 154.789062 64.980469 153.710938 64.980469 L 147.769531 64.980469 L 149.226562 69.957031 L 154.453125 69.957031 C 158.132812 69.957031 161.132812 66.960938 161.132812 63.28125 L 161.132812 34.609375 L 153.480469 34.609375 L 155.097656 30.019531 L 162.492188 30.019531 L 162.492188 25.046875 L 146.480469 25.046875 Z M 146.480469 19.628906 " fill-opacity="1" fill-rule="evenodd"/><path fill="#ffffff" d="M 177.253906 49.441406 C 175.519531 53.972656 172.285156 62.414062 170.277344 66.9375 L 170.054688 67.445312 L 175.199219 69.304688 L 175.394531 68.867188 C 177.960938 63.121094 180.253906 57.367188 182.398438 51.28125 L 182.570312 50.796875 L 177.4375 48.96875 Z M 177.253906 49.441406 " fill-opacity="1" fill-rule="evenodd"/><path fill="#ffffff" d="M 173.730469 29.804688 C 175.324219 31.03125 177.128906 32.425781 178.261719 33.398438 L 178.671875 33.75 L 182.058594 29.464844 L 181.691406 29.140625 C 180.136719 27.773438 177.652344 25.816406 174.316406 23.324219 L 173.90625 23.015625 L 170.597656 27.34375 L 170.988281 27.660156 C 171.703125 28.238281 172.6875 28.996094 173.730469 29.804688 " fill-opacity="1" fill-rule="evenodd"/><path fill="#ffffff" d="M 178.671875 45.894531 L 182.0625 41.605469 L 181.6875 41.28125 C 179 38.984375 175.988281 36.609375 173.199219 34.589844 L 172.789062 34.292969 L 169.480469 38.640625 L 169.90625 38.953125 C 172.628906 40.9375 175.597656 43.28125 178.265625 45.546875 Z M 178.671875 45.894531 " fill-opacity="1" fill-rule="evenodd"/><path fill="#ffffff" d="M 206.78125 30.019531 L 205.421875 34.609375 L 196.757812 34.609375 L 195.398438 30.019531 Z M 205.496094 55.566406 L 205.496094 58.210938 C 205.496094 58.609375 205.175781 58.929688 204.78125 58.929688 L 196.683594 58.929688 L 196.683594 55.566406 Z M 204.066406 19.628906 L 198.113281 19.628906 L 198.113281 25.046875 L 182.101562 25.046875 L 182.101562 30.019531 L 189.496094 30.027344 L 191.109375 34.617188 L 183.464844 34.609375 L 183.464844 69.957031 L 188.933594 69.957031 L 188.933594 39.585938 L 198.355469 39.585938 L 198.355469 42.605469 L 190.378906 42.605469 L 190.378906 47.578125 L 198.355469 47.578125 L 198.355469 50.59375 L 191.707031 50.59375 L 191.707031 63.902344 L 206.875 63.902344 C 208.859375 63.902344 210.472656 62.289062 210.472656 60.304688 L 210.472656 50.59375 L 203.824219 50.59375 L 203.824219 47.578125 L 211.292969 47.578125 L 211.292969 42.605469 L 203.824219 42.605469 L 203.824219 39.585938 L 213.246094 39.585938 L 213.246094 63.035156 C 213.246094 64.109375 212.371094 64.980469 211.300781 64.980469 L 205.355469 64.980469 L 206.8125 69.957031 L 212.039062 69.957031 C 215.722656 69.957031 218.71875 66.960938 218.71875 63.28125 L 218.71875 34.609375 L 211.070312 34.609375 L 212.683594 30.019531 L 220.078125 30.019531 L 220.078125 25.046875 L 204.066406 25.046875 Z M 204.066406 19.628906 " fill-opacity="1" fill-rule="evenodd"/><path fill="#ffffff" d="M 77.210938 87.539062 L 26.859375 87.539062 C 17.144531 87.539062 9.269531 79.667969 9.269531 69.960938 L 9.269531 19.644531 C 9.269531 9.933594 17.144531 2.066406 26.859375 2.066406 L 77.210938 2.066406 C 86.925781 2.066406 94.800781 9.933594 94.800781 19.644531 L 94.800781 69.960938 C 94.800781 79.667969 86.925781 87.539062 77.210938 87.539062 " fill-opacity="1" fill-rule="evenodd"/><path fill="#ff6400" d="M 53.148438 60.433594 C 63.503906 60.109375 71.710938 51.875 71.832031 41.652344 L 71.832031 32.867188 L 83.222656 32.867188 L 83.222656 42.582031 C 83 58.386719 69.25 70.859375 53.148438 71.21875 L 53.148438 71.214844 C 36.785156 71.113281 22.929688 58.554688 22.703125 42.582031 L 22.703125 25.113281 C 22.679688 23.328125 23.84375 22.167969 25.601562 22.191406 L 71.828125 22.191406 L 71.828125 32.863281 L 35.578125 32.871094 C 34.648438 32.871094 34.089844 33.4375 34.089844 34.359375 L 34.089844 41.476562 C 34.214844 51.835938 42.5625 60.324219 53.148438 60.433594 Z M 53.148438 60.433594 " fill-opacity="1" fill-rule="evenodd"/><path fill="#ff6400" d="M 110.671875 49.472656 C 108.941406 54 105.714844 62.429688 103.695312 66.980469 L 103.472656 67.488281 L 108.617188 69.351562 L 108.8125 68.914062 C 111.386719 63.15625 113.675781 57.398438 115.816406 51.316406 L 115.988281 50.832031 L 110.855469 49 Z M 110.671875 49.472656 " fill-opacity="1" fill-rule="evenodd"/><path fill="#ff6400" d="M 107.140625 29.8125 C 108.734375 31.046875 110.542969 32.441406 111.679688 33.417969 L 112.089844 33.773438 L 115.476562 29.480469 L 115.109375 29.160156 C 113.550781 27.789062 111.070312 25.828125 107.734375 23.339844 L 107.324219 23.03125 L 104.015625 27.363281 L 104.40625 27.679688 C 105.121094 28.253906 106.097656 29.011719 107.140625 29.8125 " fill-opacity="1" fill-rule="evenodd"/><path fill="#ff6400" d="M 112.089844 45.925781 L 115.480469 41.632812 L 115.105469 41.308594 C 112.417969 39.011719 109.40625 36.632812 106.617188 34.613281 L 106.207031 34.316406 L 102.898438 38.667969 L 103.324219 38.976562 C 106.042969 40.960938 109.011719 43.304688 111.683594 45.578125 Z M 112.089844 45.925781 " fill-opacity="1" fill-rule="evenodd"/><path fill="#ff6400" d="M 140.199219 30.039062 L 138.839844 34.632812 L 130.175781 34.632812 L 128.816406 30.039062 Z M 138.917969 55.605469 L 138.917969 58.25 C 138.917969 58.644531 138.59375 58.96875 138.199219 58.96875 L 130.101562 58.96875 L 130.101562 55.605469 Z M 137.484375 19.640625 L 131.535156 19.640625 L 131.535156 25.0625 L 115.519531 25.0625 L 115.519531 30.039062 L 122.914062 30.046875 L 124.53125 34.640625 L 116.882812 34.632812 L 116.882812 70 L 122.351562 70 L 122.351562 39.609375 L 131.773438 39.609375 L 131.773438 42.632812 L 123.796875 42.632812 L 123.796875 47.609375 L 131.773438 47.609375 L 131.773438 50.628906 L 125.125 50.628906 L 125.125 63.945312 L 140.296875 63.945312 C 142.277344 63.945312 143.890625 62.332031 143.890625 60.34375 L 143.890625 50.628906 L 137.242188 50.628906 L 137.242188 47.609375 L 144.714844 47.609375 L 144.714844 42.632812 L 137.242188 42.632812 L 137.242188 39.609375 L 146.667969 39.609375 L 146.667969 63.078125 C 146.667969 64.152344 145.792969 65.023438 144.71875 65.023438 L 138.773438 65.023438 L 140.234375 70 L 145.457031 70 C 149.140625 70 152.136719 67.003906 152.136719 63.324219 L 152.136719 34.632812 L 144.484375 34.632812 L 146.101562 30.039062 L 153.496094 30.039062 L 153.496094 25.0625 L 137.484375 25.0625 Z M 137.484375 19.640625 " fill-opacity="1" fill-rule="evenodd"/><path fill="#ff6400" d="M 168.261719 49.472656 C 166.523438 54.007812 163.289062 62.453125 161.285156 66.980469 L 161.0625 67.488281 L 166.203125 69.351562 L 166.398438 68.914062 C 168.96875 63.160156 171.257812 57.40625 173.402344 51.316406 L 173.574219 50.832031 L 168.441406 49 Z M 168.261719 49.472656 " fill-opacity="1" fill-rule="evenodd"/><path fill="#ff6400" d="M 164.734375 29.820312 C 166.328125 31.050781 168.132812 32.445312 169.265625 33.417969 L 169.675781 33.773438 L 173.0625 29.480469 L 172.695312 29.160156 C 171.140625 27.792969 168.660156 25.832031 165.320312 23.339844 L 164.914062 23.03125 L 161.601562 27.363281 L 161.992188 27.679688 C 162.707031 28.257812 163.691406 29.015625 164.734375 29.820312 " fill-opacity="1" fill-rule="evenodd"/><path fill="#ff6400" d="M 169.675781 45.925781 L 173.066406 41.632812 L 172.691406 41.308594 C 170.003906 39.011719 166.992188 36.632812 164.203125 34.613281 L 163.792969 34.316406 L 160.488281 38.667969 L 160.914062 38.976562 C 163.636719 40.964844 166.601562 43.308594 169.269531 45.578125 Z M 169.675781 45.925781 " fill-opacity="1" fill-rule="evenodd"/><path fill="#ff6400" d="M 197.789062 30.039062 L 196.425781 34.632812 L 187.761719 34.632812 L 186.402344 30.039062 Z M 196.5 55.605469 L 196.5 58.25 C 196.5 58.644531 196.179688 58.96875 195.785156 58.96875 L 187.6875 58.96875 L 187.6875 55.605469 Z M 195.070312 19.640625 L 189.121094 19.640625 L 189.121094 25.0625 L 173.105469 25.0625 L 173.105469 30.039062 L 180.5 30.046875 L 182.117188 34.640625 L 174.46875 34.632812 L 174.46875 70 L 179.9375 70 L 179.9375 39.609375 L 189.359375 39.609375 L 189.359375 42.632812 L 181.382812 42.632812 L 181.382812 47.609375 L 189.359375 47.609375 L 189.359375 50.628906 L 182.710938 50.628906 L 182.710938 63.945312 L 197.882812 63.945312 C 199.863281 63.945312 201.476562 62.332031 201.476562 60.34375 L 201.476562 50.628906 L 194.832031 50.628906 L 194.832031 47.609375 L 202.300781 47.609375 L 202.300781 42.632812 L 194.832031 42.632812 L 194.832031 39.609375 L 204.253906 39.609375 L 204.253906 63.078125 C 204.253906 64.152344 203.378906 65.023438 202.304688 65.023438 L 196.359375 65.023438 L 197.820312 70 L 203.042969 70 C 206.726562 70 209.722656 67.003906 209.722656 63.324219 L 209.722656 34.632812 L 202.074219 34.632812 L 203.6875 30.039062 L 211.082031 30.039062 L 211.082031 25.0625 L 195.070312 25.0625 Z M 195.070312 19.640625 " fill-opacity="1" fill-rule="evenodd"/></svg>