<svg xmlns="http://www.w3.org/2000/svg" xmlns:xlink="http://www.w3.org/1999/xlink" width="500" zoomAndPan="magnify" viewBox="0 0 375 149.999998" height="200" preserveAspectRatio="xMidYMid meet" version="1.0"><defs><clipPath id="db1c46414a"><path d="M 0 6.136719 L 144 6.136719 L 144 150 L 0 150 Z M 0 6.136719 " clip-rule="nonzero"/></clipPath></defs><path fill="#ffffff" d="M 184.554688 85.609375 C 181.664062 93.171875 176.285156 107.242188 172.917969 114.839844 L 172.546875 115.683594 L 181.125 118.796875 L 181.449219 118.0625 C 185.742188 108.449219 189.5625 98.84375 193.132812 88.6875 L 193.417969 87.878906 L 184.855469 84.824219 Z M 184.554688 85.609375 " fill-opacity="1" fill-rule="evenodd"/><path fill="#ffffff" d="M 178.660156 52.792969 C 181.320312 54.847656 184.339844 57.179688 186.234375 58.8125 L 186.914062 59.402344 L 192.5625 52.238281 L 191.949219 51.699219 C 189.347656 49.410156 185.214844 46.140625 179.652344 41.984375 L 178.96875 41.472656 L 173.449219 48.703125 L 174.101562 49.230469 C 175.292969 50.191406 176.925781 51.453125 178.660156 52.792969 " fill-opacity="1" fill-rule="evenodd"/><path fill="#ffffff" d="M 186.917969 79.6875 L 192.570312 72.523438 L 191.941406 71.984375 C 187.460938 68.144531 182.4375 64.175781 177.789062 60.804688 L 177.105469 60.308594 L 171.589844 67.574219 L 172.300781 68.09375 C 176.832031 71.398438 181.78125 75.3125 186.234375 79.109375 Z M 186.917969 79.6875 " fill-opacity="1" fill-rule="evenodd"/><path fill="#ffffff" d="M 233.796875 53.171875 L 231.527344 60.839844 L 217.078125 60.839844 L 214.8125 53.171875 Z M 231.652344 95.847656 L 231.652344 100.265625 C 231.652344 100.925781 231.117188 101.460938 230.460938 101.460938 L 216.953125 101.460938 L 216.953125 95.847656 Z M 229.265625 35.8125 L 219.34375 35.8125 L 219.34375 44.863281 L 192.632812 44.863281 L 192.632812 53.171875 L 204.964844 53.179688 L 207.660156 60.847656 L 194.90625 60.835938 L 194.90625 119.878906 L 204.027344 119.878906 L 204.027344 69.148438 L 219.742188 69.148438 L 219.742188 74.191406 L 206.4375 74.191406 L 206.4375 82.5 L 219.742188 82.5 L 219.742188 87.539062 L 208.65625 87.539062 L 208.65625 109.769531 L 233.953125 109.769531 C 237.261719 109.769531 239.953125 107.074219 239.953125 103.761719 L 239.953125 87.539062 L 228.863281 87.539062 L 228.863281 82.5 L 241.324219 82.5 L 241.324219 74.191406 L 228.863281 74.191406 L 228.863281 69.148438 L 244.578125 69.148438 L 244.578125 108.320312 C 244.578125 110.113281 243.121094 111.570312 241.328125 111.570312 L 231.417969 111.570312 L 233.851562 119.878906 L 242.5625 119.878906 C 248.703125 119.878906 253.699219 114.878906 253.699219 108.730469 L 253.699219 60.839844 L 240.941406 60.839844 L 243.636719 53.171875 L 255.96875 53.171875 L 255.96875 44.863281 L 229.265625 44.863281 Z M 229.265625 35.8125 " fill-opacity="1" fill-rule="evenodd"/><path fill="#ffffff" d="M 280.589844 85.609375 C 277.695312 93.183594 272.304688 107.28125 268.957031 114.839844 L 268.585938 115.683594 L 277.160156 118.796875 L 277.488281 118.0625 C 281.769531 108.460938 285.589844 98.851562 289.167969 88.6875 L 289.453125 87.878906 L 280.890625 84.824219 Z M 280.589844 85.609375 " fill-opacity="1" fill-rule="evenodd"/><path fill="#ffffff" d="M 274.714844 52.808594 C 277.367188 54.859375 280.378906 57.183594 282.269531 58.8125 L 282.953125 59.402344 L 288.601562 52.238281 L 287.988281 51.699219 C 285.394531 49.417969 281.253906 46.148438 275.691406 41.984375 L 275.007812 41.472656 L 269.488281 48.703125 L 270.140625 49.230469 C 271.332031 50.195312 272.972656 51.460938 274.714844 52.808594 " fill-opacity="1" fill-rule="evenodd"/><path fill="#ffffff" d="M 282.953125 79.6875 L 288.605469 72.523438 L 287.980469 71.984375 C 283.5 68.144531 278.476562 64.175781 273.824219 60.804688 L 273.144531 60.308594 L 267.628906 67.574219 L 268.335938 68.09375 C 272.878906 71.40625 277.828125 75.320312 282.273438 79.109375 Z M 282.953125 79.6875 " fill-opacity="1" fill-rule="evenodd"/><path fill="#ffffff" d="M 329.832031 53.171875 L 327.5625 60.839844 L 313.117188 60.839844 L 310.847656 53.171875 Z M 327.6875 95.847656 L 327.6875 100.265625 C 327.6875 100.925781 327.152344 101.460938 326.496094 101.460938 L 312.988281 101.460938 L 312.988281 95.847656 Z M 325.300781 35.8125 L 315.378906 35.8125 L 315.378906 44.863281 L 288.671875 44.863281 L 288.671875 53.171875 L 301.003906 53.179688 L 303.695312 60.847656 L 290.941406 60.835938 L 290.941406 119.878906 L 300.0625 119.878906 L 300.0625 69.148438 L 315.777344 69.148438 L 315.777344 74.191406 L 302.472656 74.191406 L 302.472656 82.5 L 315.777344 82.5 L 315.777344 87.539062 L 304.691406 87.539062 L 304.691406 109.769531 L 329.988281 109.769531 C 333.296875 109.769531 335.988281 107.074219 335.988281 103.761719 L 335.988281 87.539062 L 324.902344 87.539062 L 324.902344 82.5 L 337.359375 82.5 L 337.359375 74.191406 L 324.902344 74.191406 L 324.902344 69.148438 L 340.613281 69.148438 L 340.613281 108.320312 C 340.613281 110.113281 339.15625 111.570312 337.367188 111.570312 L 327.453125 111.570312 L 329.886719 119.878906 L 338.597656 119.878906 C 344.742188 119.878906 349.738281 114.878906 349.738281 108.730469 L 349.738281 60.839844 L 336.980469 60.839844 L 339.675781 53.171875 L 352.003906 53.171875 L 352.003906 44.863281 L 325.300781 44.863281 Z M 325.300781 35.8125 " fill-opacity="1" fill-rule="evenodd"/><g clip-path="url(#db1c46414a)"><path fill="#ffffff" d="M 113.746094 149.253906 L 29.777344 149.253906 C 13.574219 149.253906 0.441406 136.105469 0.441406 119.886719 L 0.441406 35.839844 C 0.441406 19.621094 13.574219 6.472656 29.777344 6.472656 L 113.746094 6.472656 C 129.945312 6.472656 143.082031 19.621094 143.082031 35.839844 L 143.082031 119.886719 C 143.082031 136.105469 129.945312 149.253906 113.746094 149.253906 " fill-opacity="1" fill-rule="evenodd"/></g><path fill="#ff6400" d="M 73.621094 103.972656 C 90.886719 103.433594 104.574219 89.679688 104.777344 72.605469 L 104.777344 57.925781 L 123.773438 57.925781 L 123.773438 74.15625 C 123.402344 100.558594 100.472656 121.390625 73.621094 121.988281 L 73.621094 121.984375 C 46.332031 121.8125 23.222656 100.835938 22.847656 74.152344 L 22.847656 44.972656 C 22.804688 41.988281 24.746094 40.050781 27.679688 40.09375 L 104.769531 40.089844 L 104.769531 57.917969 L 44.320312 57.933594 C 42.769531 57.933594 41.835938 58.878906 41.835938 60.417969 L 41.835938 72.308594 C 42.039062 89.609375 55.964844 103.792969 73.617188 103.972656 Z M 73.621094 103.972656 " fill-opacity="1" fill-rule="evenodd"/><path fill="#ff6400" d="M 184.554688 85.53125 C 181.664062 93.085938 176.285156 107.144531 172.917969 114.730469 L 172.546875 115.578125 L 181.125 118.6875 L 181.449219 117.953125 C 185.742188 108.351562 189.5625 98.75 193.132812 88.605469 L 193.417969 87.796875 L 184.855469 84.746094 Z M 184.554688 85.53125 " fill-opacity="1" fill-rule="evenodd"/><path fill="#ff6400" d="M 178.660156 52.746094 C 181.320312 54.800781 184.339844 57.132812 186.234375 58.761719 L 186.914062 59.347656 L 192.5625 52.195312 L 191.949219 51.65625 C 189.347656 49.367188 185.214844 46.101562 179.652344 41.949219 L 178.96875 41.4375 L 173.449219 48.660156 L 174.101562 49.1875 C 175.292969 50.148438 176.925781 51.410156 178.660156 52.746094 " fill-opacity="1" fill-rule="evenodd"/><path fill="#ff6400" d="M 186.917969 79.617188 L 192.570312 72.457031 L 191.941406 71.921875 C 187.460938 68.085938 182.4375 64.121094 177.789062 60.75 L 177.105469 60.253906 L 171.589844 67.511719 L 172.300781 68.03125 C 176.832031 71.335938 181.78125 75.246094 186.234375 79.035156 Z M 186.917969 79.617188 " fill-opacity="1" fill-rule="evenodd"/><path fill="#ff6400" d="M 233.796875 53.125 L 231.527344 60.785156 L 217.078125 60.785156 L 214.8125 53.125 Z M 231.652344 95.757812 L 231.652344 100.171875 C 231.652344 100.832031 231.117188 101.367188 230.460938 101.367188 L 216.953125 101.367188 L 216.953125 95.757812 Z M 229.265625 35.78125 L 219.34375 35.78125 L 219.34375 44.824219 L 192.632812 44.824219 L 192.632812 53.125 L 204.964844 53.132812 L 207.660156 60.796875 L 194.90625 60.78125 L 194.90625 119.769531 L 204.027344 119.769531 L 204.027344 69.085938 L 219.742188 69.085938 L 219.742188 74.125 L 206.4375 74.125 L 206.4375 82.425781 L 219.742188 82.425781 L 219.742188 87.460938 L 208.65625 87.460938 L 208.65625 109.667969 L 233.953125 109.667969 C 237.261719 109.667969 239.953125 106.976562 239.953125 103.664062 L 239.953125 87.460938 L 228.863281 87.460938 L 228.863281 82.425781 L 241.324219 82.425781 L 241.324219 74.125 L 228.863281 74.125 L 228.863281 69.085938 L 244.578125 69.085938 L 244.578125 108.222656 C 244.578125 110.011719 243.121094 111.46875 241.328125 111.46875 L 231.417969 111.46875 L 233.851562 119.769531 L 242.5625 119.769531 C 248.703125 119.769531 253.699219 114.773438 253.699219 108.628906 L 253.699219 60.785156 L 240.941406 60.785156 L 243.636719 53.125 L 255.96875 53.125 L 255.96875 44.824219 L 229.265625 44.824219 Z M 229.265625 35.78125 " fill-opacity="1" fill-rule="evenodd"/><path fill="#ff6400" d="M 280.589844 85.53125 C 277.695312 93.097656 272.304688 107.179688 268.957031 114.730469 L 268.585938 115.578125 L 277.160156 118.6875 L 277.488281 117.953125 C 281.769531 108.363281 285.589844 98.761719 289.167969 88.605469 L 289.453125 87.796875 L 280.890625 84.746094 Z M 280.589844 85.53125 " fill-opacity="1" fill-rule="evenodd"/><path fill="#ff6400" d="M 274.714844 52.761719 C 277.367188 54.8125 280.378906 57.136719 282.269531 58.761719 L 282.953125 59.347656 L 288.601562 52.195312 L 287.988281 51.65625 C 285.394531 49.375 281.253906 46.109375 275.691406 41.949219 L 275.007812 41.4375 L 269.488281 48.660156 L 270.140625 49.1875 C 271.332031 50.152344 272.972656 51.417969 274.714844 52.761719 " fill-opacity="1" fill-rule="evenodd"/><path fill="#ff6400" d="M 282.953125 79.617188 L 288.605469 72.457031 L 287.980469 71.921875 C 283.5 68.085938 278.476562 64.121094 273.824219 60.75 L 273.144531 60.253906 L 267.628906 67.511719 L 268.335938 68.03125 C 272.878906 71.34375 277.828125 75.253906 282.273438 79.035156 Z M 282.953125 79.617188 " fill-opacity="1" fill-rule="evenodd"/><path fill="#ff6400" d="M 329.832031 53.125 L 327.5625 60.785156 L 313.117188 60.785156 L 310.847656 53.125 Z M 327.6875 95.757812 L 327.6875 100.171875 C 327.6875 100.832031 327.152344 101.367188 326.496094 101.367188 L 312.988281 101.367188 L 312.988281 95.757812 Z M 325.300781 35.78125 L 315.378906 35.78125 L 315.378906 44.824219 L 288.671875 44.824219 L 288.671875 53.125 L 301.003906 53.132812 L 303.695312 60.796875 L 290.941406 60.78125 L 290.941406 119.769531 L 300.0625 119.769531 L 300.0625 69.085938 L 315.777344 69.085938 L 315.777344 74.125 L 302.472656 74.125 L 302.472656 82.425781 L 315.777344 82.425781 L 315.777344 87.460938 L 304.691406 87.460938 L 304.691406 109.667969 L 329.988281 109.667969 C 333.296875 109.667969 335.988281 106.976562 335.988281 103.664062 L 335.988281 87.460938 L 324.902344 87.460938 L 324.902344 82.425781 L 337.359375 82.425781 L 337.359375 74.125 L 324.902344 74.125 L 324.902344 69.085938 L 340.613281 69.085938 L 340.613281 108.222656 C 340.613281 110.011719 339.15625 111.46875 337.367188 111.46875 L 327.453125 111.46875 L 329.886719 119.769531 L 338.597656 119.769531 C 344.742188 119.769531 349.738281 114.773438 349.738281 108.628906 L 349.738281 60.785156 L 336.980469 60.785156 L 339.675781 53.125 L 352.003906 53.125 L 352.003906 44.824219 L 325.300781 44.824219 Z M 325.300781 35.78125 " fill-opacity="1" fill-rule="evenodd"/></svg>