<svg xmlns="http://www.w3.org/2000/svg" xmlns:xlink="http://www.w3.org/1999/xlink" width="500" zoomAndPan="magnify" viewBox="0 0 375 149.999998" height="200" preserveAspectRatio="xMidYMid meet" version="1.0"><defs><clipPath id="15cec6fe3a"><path d="M 15 3.066406 L 159 3.066406 L 159 147 L 15 147 Z M 15 3.066406 " clip-rule="nonzero"/></clipPath></defs><path fill="#ffffff" d="M 199.554688 82.542969 C 196.664062 90.101562 191.285156 104.171875 187.917969 111.769531 L 187.546875 112.617188 L 196.125 115.726562 L 196.449219 114.996094 C 200.742188 105.382812 204.5625 95.773438 208.132812 85.621094 L 208.417969 84.808594 L 199.855469 81.753906 Z M 199.554688 82.542969 " fill-opacity="1" fill-rule="evenodd"/><path fill="#ffffff" d="M 193.660156 49.726562 C 196.320312 51.78125 199.339844 54.113281 201.234375 55.746094 L 201.914062 56.332031 L 207.5625 49.171875 L 206.949219 48.632812 C 204.347656 46.34375 200.214844 43.074219 194.652344 38.914062 L 193.96875 38.402344 L 188.449219 45.632812 L 189.101562 46.160156 C 190.292969 47.125 191.925781 48.386719 193.660156 49.726562 " fill-opacity="1" fill-rule="evenodd"/><path fill="#ffffff" d="M 201.917969 76.621094 L 207.570312 69.453125 L 206.941406 68.917969 C 202.460938 65.078125 197.4375 61.109375 192.789062 57.734375 L 192.105469 57.238281 L 186.589844 64.503906 L 187.300781 65.023438 C 191.832031 68.332031 196.78125 72.246094 201.234375 76.039062 Z M 201.917969 76.621094 " fill-opacity="1" fill-rule="evenodd"/><path fill="#ffffff" d="M 248.796875 50.101562 L 246.527344 57.769531 L 232.078125 57.769531 L 229.8125 50.101562 Z M 246.652344 92.777344 L 246.652344 97.195312 C 246.652344 97.855469 246.117188 98.390625 245.460938 98.390625 L 231.953125 98.390625 L 231.953125 92.777344 Z M 244.265625 32.742188 L 234.34375 32.742188 L 234.34375 41.792969 L 207.632812 41.792969 L 207.632812 50.101562 L 219.964844 50.113281 L 222.660156 57.78125 L 209.90625 57.769531 L 209.90625 116.8125 L 219.027344 116.8125 L 219.027344 66.078125 L 234.742188 66.078125 L 234.742188 71.121094 L 221.4375 71.121094 L 221.4375 79.429688 L 234.742188 79.429688 L 234.742188 84.46875 L 223.65625 84.46875 L 223.65625 106.699219 L 248.953125 106.699219 C 252.261719 106.699219 254.953125 104.007812 254.953125 100.691406 L 254.953125 84.46875 L 243.863281 84.46875 L 243.863281 79.429688 L 256.324219 79.429688 L 256.324219 71.121094 L 243.863281 71.121094 L 243.863281 66.078125 L 259.578125 66.078125 L 259.578125 105.253906 C 259.578125 107.042969 258.121094 108.503906 256.328125 108.503906 L 246.417969 108.503906 L 248.851562 116.8125 L 257.5625 116.8125 C 263.703125 116.8125 268.699219 111.808594 268.699219 105.664062 L 268.699219 57.769531 L 255.941406 57.769531 L 258.636719 50.101562 L 270.96875 50.101562 L 270.96875 41.792969 L 244.265625 41.792969 Z M 244.265625 32.742188 " fill-opacity="1" fill-rule="evenodd"/><path fill="#ffffff" d="M 295.589844 82.542969 C 292.695312 90.113281 287.304688 104.210938 283.957031 111.769531 L 283.585938 112.617188 L 292.160156 115.726562 L 292.488281 114.996094 C 296.769531 105.394531 300.589844 95.785156 304.167969 85.621094 L 304.453125 84.808594 L 295.890625 81.753906 Z M 295.589844 82.542969 " fill-opacity="1" fill-rule="evenodd"/><path fill="#ffffff" d="M 289.714844 49.738281 C 292.367188 51.792969 295.378906 54.117188 297.269531 55.746094 L 297.953125 56.332031 L 303.601562 49.171875 L 302.988281 48.632812 C 300.394531 46.347656 296.253906 43.078125 290.691406 38.914062 L 290.007812 38.402344 L 284.488281 45.632812 L 285.140625 46.160156 C 286.332031 47.128906 287.972656 48.394531 289.714844 49.738281 " fill-opacity="1" fill-rule="evenodd"/><path fill="#ffffff" d="M 297.953125 76.621094 L 303.605469 69.453125 L 302.980469 68.917969 C 298.5 65.078125 293.476562 61.109375 288.824219 57.734375 L 288.144531 57.238281 L 282.628906 64.503906 L 283.335938 65.023438 C 287.878906 68.339844 292.828125 72.253906 297.273438 76.039062 Z M 297.953125 76.621094 " fill-opacity="1" fill-rule="evenodd"/><path fill="#ffffff" d="M 344.832031 50.101562 L 342.5625 57.769531 L 328.117188 57.769531 L 325.847656 50.101562 Z M 342.6875 92.777344 L 342.6875 97.195312 C 342.6875 97.855469 342.152344 98.390625 341.496094 98.390625 L 327.988281 98.390625 L 327.988281 92.777344 Z M 340.300781 32.742188 L 330.378906 32.742188 L 330.378906 41.792969 L 303.671875 41.792969 L 303.671875 50.101562 L 316.003906 50.113281 L 318.695312 57.78125 L 305.941406 57.769531 L 305.941406 116.8125 L 315.0625 116.8125 L 315.0625 66.078125 L 330.777344 66.078125 L 330.777344 71.121094 L 317.472656 71.121094 L 317.472656 79.429688 L 330.777344 79.429688 L 330.777344 84.46875 L 319.691406 84.46875 L 319.691406 106.699219 L 344.988281 106.699219 C 348.296875 106.699219 350.988281 104.007812 350.988281 100.691406 L 350.988281 84.46875 L 339.902344 84.46875 L 339.902344 79.429688 L 352.359375 79.429688 L 352.359375 71.121094 L 339.902344 71.121094 L 339.902344 66.078125 L 355.613281 66.078125 L 355.613281 105.253906 C 355.613281 107.042969 354.15625 108.503906 352.367188 108.503906 L 342.453125 108.503906 L 344.886719 116.8125 L 353.597656 116.8125 C 359.742188 116.8125 364.738281 111.808594 364.738281 105.664062 L 364.738281 57.769531 L 351.980469 57.769531 L 354.675781 50.101562 L 367.003906 50.101562 L 367.003906 41.792969 L 340.300781 41.792969 Z M 340.300781 32.742188 " fill-opacity="1" fill-rule="evenodd"/><g clip-path="url(#15cec6fe3a)"><path fill="#ffffff" d="M 128.746094 146.183594 L 44.777344 146.183594 C 28.574219 146.183594 15.441406 133.039062 15.441406 116.820312 L 15.441406 32.769531 C 15.441406 16.550781 28.574219 3.40625 44.777344 3.40625 L 128.746094 3.40625 C 144.945312 3.40625 158.082031 16.550781 158.082031 32.769531 L 158.082031 116.820312 C 158.082031 133.039062 144.945312 146.183594 128.746094 146.183594 " fill-opacity="1" fill-rule="evenodd"/></g><path fill="#ff6400" d="M 88.621094 100.902344 C 105.886719 100.363281 119.574219 86.613281 119.777344 69.535156 L 119.777344 54.855469 L 138.773438 54.855469 L 138.773438 71.089844 C 138.402344 97.488281 115.472656 118.320312 88.621094 118.921875 L 88.621094 118.917969 C 61.332031 118.746094 38.222656 97.769531 37.847656 71.085938 L 37.847656 41.902344 C 37.804688 38.921875 39.746094 36.984375 42.679688 37.027344 L 119.769531 37.023438 L 119.769531 54.847656 L 59.320312 54.863281 C 57.769531 54.863281 56.835938 55.808594 56.835938 57.347656 L 56.835938 69.238281 C 57.039062 86.542969 70.964844 100.726562 88.617188 100.902344 Z M 88.621094 100.902344 " fill-opacity="1" fill-rule="evenodd"/><path fill="#ff6400" d="M 184.554688 82.464844 C 181.664062 90.015625 176.285156 104.074219 172.917969 111.664062 L 172.546875 112.507812 L 181.125 115.617188 L 181.449219 114.886719 C 185.742188 105.28125 189.5625 95.683594 193.132812 85.539062 L 193.417969 84.730469 L 184.855469 81.679688 Z M 184.554688 82.464844 " fill-opacity="1" fill-rule="evenodd"/><path fill="#ff6400" d="M 178.660156 49.679688 C 181.320312 51.734375 184.339844 54.0625 186.234375 55.695312 L 186.914062 56.28125 L 192.5625 49.125 L 191.949219 48.585938 C 189.347656 46.300781 185.214844 43.035156 179.652344 38.878906 L 178.96875 38.367188 L 173.449219 45.589844 L 174.101562 46.117188 C 175.292969 47.082031 176.925781 48.339844 178.660156 49.679688 " fill-opacity="1" fill-rule="evenodd"/><path fill="#ff6400" d="M 186.917969 76.546875 L 192.570312 69.390625 L 191.941406 68.851562 C 187.460938 65.019531 182.4375 61.050781 177.789062 57.683594 L 177.105469 57.1875 L 171.589844 64.445312 L 172.300781 64.964844 C 176.832031 68.269531 181.78125 72.175781 186.234375 75.96875 Z M 186.917969 76.546875 " fill-opacity="1" fill-rule="evenodd"/><path fill="#ff6400" d="M 233.796875 50.054688 L 231.527344 57.71875 L 217.078125 57.71875 L 214.8125 50.054688 Z M 231.652344 92.691406 L 231.652344 97.105469 C 231.652344 97.765625 231.117188 98.300781 230.460938 98.300781 L 216.953125 98.300781 L 216.953125 92.691406 Z M 229.265625 32.714844 L 219.34375 32.714844 L 219.34375 41.757812 L 192.632812 41.757812 L 192.632812 50.054688 L 204.964844 50.066406 L 207.660156 57.726562 L 194.90625 57.714844 L 194.90625 116.703125 L 204.027344 116.703125 L 204.027344 66.015625 L 219.742188 66.015625 L 219.742188 71.054688 L 206.4375 71.054688 L 206.4375 79.355469 L 219.742188 79.355469 L 219.742188 84.390625 L 208.65625 84.390625 L 208.65625 106.597656 L 233.953125 106.597656 C 237.261719 106.597656 239.953125 103.90625 239.953125 100.597656 L 239.953125 84.390625 L 228.863281 84.390625 L 228.863281 79.355469 L 241.324219 79.355469 L 241.324219 71.054688 L 228.863281 71.054688 L 228.863281 66.015625 L 244.578125 66.015625 L 244.578125 105.152344 C 244.578125 106.941406 243.121094 108.398438 241.328125 108.398438 L 231.417969 108.398438 L 233.851562 116.703125 L 242.5625 116.703125 C 248.703125 116.703125 253.699219 111.703125 253.699219 105.5625 L 253.699219 57.71875 L 240.941406 57.71875 L 243.636719 50.054688 L 255.96875 50.054688 L 255.96875 41.757812 L 229.265625 41.757812 Z M 229.265625 32.714844 " fill-opacity="1" fill-rule="evenodd"/><path fill="#ff6400" d="M 280.589844 82.464844 C 277.695312 90.027344 272.304688 104.113281 268.957031 111.664062 L 268.585938 112.507812 L 277.160156 115.617188 L 277.488281 114.886719 C 281.769531 105.292969 285.589844 95.691406 289.167969 85.539062 L 289.453125 84.730469 L 280.890625 81.679688 Z M 280.589844 82.464844 " fill-opacity="1" fill-rule="evenodd"/><path fill="#ff6400" d="M 274.714844 49.695312 C 277.367188 51.742188 280.378906 54.066406 282.269531 55.695312 L 282.953125 56.28125 L 288.601562 49.125 L 287.988281 48.585938 C 285.394531 46.308594 281.253906 43.039062 275.691406 38.878906 L 275.007812 38.367188 L 269.488281 45.589844 L 270.140625 46.117188 C 271.332031 47.085938 272.972656 48.347656 274.714844 49.695312 " fill-opacity="1" fill-rule="evenodd"/><path fill="#ff6400" d="M 282.953125 76.546875 L 288.605469 69.390625 L 287.980469 68.851562 C 283.5 65.019531 278.476562 61.050781 273.824219 57.683594 L 273.144531 57.1875 L 267.628906 64.445312 L 268.335938 64.964844 C 272.878906 68.273438 277.828125 72.183594 282.273438 75.96875 Z M 282.953125 76.546875 " fill-opacity="1" fill-rule="evenodd"/><path fill="#ff6400" d="M 329.832031 50.054688 L 327.5625 57.71875 L 313.117188 57.71875 L 310.847656 50.054688 Z M 327.6875 92.691406 L 327.6875 97.105469 C 327.6875 97.765625 327.152344 98.300781 326.496094 98.300781 L 312.988281 98.300781 L 312.988281 92.691406 Z M 325.300781 32.714844 L 315.378906 32.714844 L 315.378906 41.757812 L 288.671875 41.757812 L 288.671875 50.054688 L 301.003906 50.066406 L 303.695312 57.726562 L 290.941406 57.714844 L 290.941406 116.703125 L 300.0625 116.703125 L 300.0625 66.015625 L 315.777344 66.015625 L 315.777344 71.054688 L 302.472656 71.054688 L 302.472656 79.355469 L 315.777344 79.355469 L 315.777344 84.390625 L 304.691406 84.390625 L 304.691406 106.597656 L 329.988281 106.597656 C 333.296875 106.597656 335.988281 103.90625 335.988281 100.597656 L 335.988281 84.390625 L 324.902344 84.390625 L 324.902344 79.355469 L 337.359375 79.355469 L 337.359375 71.054688 L 324.902344 71.054688 L 324.902344 66.015625 L 340.613281 66.015625 L 340.613281 105.152344 C 340.613281 106.941406 339.15625 108.398438 337.367188 108.398438 L 327.453125 108.398438 L 329.886719 116.703125 L 338.597656 116.703125 C 344.742188 116.703125 349.738281 111.703125 349.738281 105.5625 L 349.738281 57.71875 L 336.980469 57.71875 L 339.675781 50.054688 L 352.003906 50.054688 L 352.003906 41.757812 L 325.300781 41.757812 Z M 325.300781 32.714844 " fill-opacity="1" fill-rule="evenodd"/></svg>